<?xml version="1.0" encoding="UTF-8"?>
<svg id="Layer_1" data-name="Layer 1" xmlns="http://www.w3.org/2000/svg" viewBox="0 0 94.13 186.7">
  <defs>
    <style>
      .cls-1 {
        fill: #fff;
      }

      .cls-2 {
        fill: #ed2631;
      }
    </style>
  </defs>
  <path class="cls-2" d="M0,0h94.13v139.64c0,25.98-21.09,47.07-47.07,47.07h0C21.09,186.7,0,165.61,0,139.64V0H0Z"/>
  <path class="cls-1" d="M70.78,157.46c-5.43,7.18-14.04,11.83-23.72,11.83-16.39,0-29.73-13.34-29.73-29.74,0-7.41,6.01-13.42,13.42-13.42,6.71,0,12.28,4.93,13.26,11.37v2.04c0,10.69,8.69,19.38,19.38,19.38,2.62,0,5.12-.52,7.4-1.47ZM29.11,94.06c-6.5,0-11.78,5.27-11.78,11.78h0c0,6.5,5.27,11.78,11.78,11.78h24.14v24.22c0,6.5,5.27,11.78,11.78,11.78h0c6.5,0,11.78-5.27,11.78-11.78v-47.77H29.11Z"/>
</svg>