<?xml version="1.0" encoding="UTF-8"?>
<svg id="Isolation_Mode" xmlns="http://www.w3.org/2000/svg" version="1.1" viewBox="0 0 3212.89 2332.01" opacity="0.9">
  <!-- Generator: Adobe Illustrator 30.2.1, SVG Export Plug-In . SVG Version: 2.1.1 Build 1)  -->
  <defs>
    <style>
      .st0 {
        fill: #bc001f;
      }
    </style>
  </defs>
  <path class="st0" d="M2194.13,75.87c-41.84,0-75.87-34.04-75.87-75.87h5c0,39.08,31.79,70.87,70.87,70.87S2265.01,39.08,2265.01,0h5c0,41.84-34.04,75.87-75.88,75.87Z"/>
  <path class="st0" d="M2149.71,140.36c-77.39,0-140.36-62.96-140.36-140.36h5c0,74.64,60.72,135.36,135.36,135.36,74.64,0,135.36-60.72,135.36-135.36h5c0,77.39-62.96,140.36-140.36,140.36Z"/>
  <path class="st0" d="M2105.29,204.84c-112.95,0-204.84-91.89-204.84-204.84h5c0,110.19,89.65,199.84,199.84,199.84,110.19,0,199.84-89.65,199.84-199.84h5c0,112.95-91.89,204.84-204.84,204.84Z"/>
  <path class="st0" d="M2060.86,269.33c-71.93,0-139.56-28.02-190.44-78.89C1819.55,139.56,1791.54,71.93,1791.54,0h5c0,70.6,27.5,136.97,77.43,186.9,49.93,49.93,116.3,77.43,186.9,77.43,70.6,0,136.97-27.5,186.9-77.43C2297.69,136.97,2325.19,70.6,2325.19,0h5c0,71.93-28.02,139.56-78.89,190.44-50.87,50.87-118.5,78.89-190.44,78.89Z"/>
  <path class="st0" d="M2016.44,333.81c-89.15,0-172.98-34.73-236.03-97.78C1717.36,172.98,1682.63,89.15,1682.63,0h5c0,87.82,34.2,170.39,96.31,232.5,62.11,62.11,144.68,96.31,232.5,96.31s170.39-34.2,232.5-96.31C2311.05,170.39,2345.25,87.82,2345.25,0h5c0,89.15-34.72,172.98-97.78,236.03-63.05,63.05-146.88,97.78-236.03,97.78Z"/>
  <path class="st0" d="M2253.65,281.63c-36.58,36.58-79.18,65.3-126.6,85.36-49.11,20.77-101.26,31.3-155.02,31.3s-105.92-10.53-155.02-31.3c-47.43-20.06-90.02-48.78-126.6-85.36-36.58-36.58-65.3-79.17-85.36-126.6C1584.26,105.92,1573.72,53.76,1573.72,0h5c0,105.04,40.91,203.8,115.2,278.09,74.29,74.29,173.05,115.2,278.09,115.2,105.04,0,203.8-40.91,278.09-115.2C2324.4,203.8,2365.31,105.04,2365.31,0h5c0,53.76-10.53,105.92-31.3,155.02-20.06,47.43-48.78,90.02-85.36,126.6Z"/>
  <path class="st0" d="M2254.82,327.22c-42.5,42.5-91.99,75.87-147.1,99.18-57.05,24.13-117.66,36.37-180.12,36.37-62.47,0-123.07-12.24-180.12-36.37-55.11-23.31-104.6-56.68-147.1-99.18-42.5-42.5-75.87-91.99-99.18-147.1C1477.06,123.07,1464.82,62.47,1464.82,0h5c0,61.79,12.1,121.74,35.98,178.17,23.06,54.51,56.07,103.47,98.11,145.51,42.04,42.04,91,75.05,145.51,98.11,56.43,23.87,116.38,35.98,178.18,35.98,61.79,0,121.74-12.1,178.18-35.98,54.51-23.06,103.47-56.07,145.51-98.11,42.04-42.04,75.05-91,98.11-145.51C2373.27,121.74,2385.37,61.79,2385.37,0h5c0,62.47-12.24,123.07-36.37,180.12-23.31,55.11-56.68,104.6-99.18,147.1Z"/>
  <path class="st0" d="M2255.99,372.82c-48.42,48.42-104.81,86.44-167.6,113-65,27.5-134.05,41.44-205.22,41.44s-140.22-13.94-205.22-41.44c-62.78-26.56-119.17-64.58-167.6-113-48.42-48.42-86.44-104.81-113-167.6C1369.85,140.22,1355.91,71.17,1355.91,0h5c0,70.5,13.81,138.89,41.05,203.27,26.31,62.19,63.97,118.04,111.93,166.01,47.97,47.97,103.82,85.63,166.01,111.93,64.38,27.24,132.78,41.04,203.27,41.04s138.89-13.81,203.27-41.04c62.19-26.31,118.04-63.97,166.01-111.93,47.97-47.97,85.63-103.82,111.93-166.01C2391.63,138.89,2405.43,70.5,2405.43,0h5c0,71.17-13.94,140.22-41.44,205.22-26.56,62.78-64.58,119.17-113,167.6Z"/>
  <path class="st0" d="M2257.16,418.41c-54.35,54.35-117.63,97.02-188.09,126.82-72.95,30.86-150.45,46.51-230.32,46.51s-157.37-15.65-230.32-46.51c-70.46-29.81-133.75-72.48-188.09-126.82-54.35-54.35-97.02-117.63-126.82-188.09C1262.65,157.36,1247.01,79.87,1247.01,0h5c0,79.2,15.51,156.04,46.11,228.37,29.55,69.87,71.86,132.62,125.75,186.51,53.89,53.89,116.64,96.2,186.51,125.75,72.33,30.6,149.17,46.11,228.37,46.11s156.04-15.51,228.37-46.11c69.87-29.55,132.62-71.87,186.51-125.75,53.89-53.89,96.2-116.64,125.75-186.51C2409.98,156.04,2425.5,79.2,2425.5,0h5c0,79.87-15.65,157.36-46.51,230.32-29.81,70.46-72.48,133.75-126.82,188.09Z"/>
  <path class="st0" d="M2258.34,464.01c-60.27,60.27-130.45,107.59-208.59,140.64-80.9,34.22-166.84,51.58-255.42,51.58-88.58,0-174.51-17.35-255.42-51.58-78.14-33.06-148.32-80.38-208.59-140.64-60.27-60.27-107.59-130.45-140.64-208.59C1155.45,174.51,1138.1,88.58,1138.1,0h5c0,87.91,17.22,173.18,51.18,253.47,32.8,77.55,79.76,147.19,139.57,207,59.81,59.81,129.46,106.77,207,139.57,80.28,33.96,165.56,51.18,253.47,51.18,87.91,0,173.19-17.22,253.47-51.18,77.55-32.8,147.19-79.76,207-139.57,59.81-59.81,106.77-129.46,139.57-207C2428.34,173.18,2445.56,87.91,2445.56,0h5c0,88.58-17.35,174.51-51.58,255.42-33.06,78.14-80.38,148.32-140.64,208.59Z"/>
  <path class="st0" d="M2259.51,509.6c-66.19,66.19-143.27,118.16-229.09,154.46-88.85,37.59-183.23,56.64-280.52,56.64-97.28,0-191.66-19.06-280.52-56.64-85.82-36.3-162.9-88.27-229.09-154.46-66.19-66.19-118.16-143.27-154.46-229.09C1048.25,191.66,1029.19,97.28,1029.19,0h5c0,96.61,18.92,190.33,56.25,278.57,36.05,85.22,87.66,161.77,153.39,227.5,65.73,65.73,142.28,117.34,227.5,153.39,88.23,37.32,181.96,56.25,278.57,56.25s190.33-18.92,278.57-56.25c85.22-36.05,161.77-87.66,227.5-153.39,65.73-65.73,117.34-142.28,153.39-227.5C2446.69,190.33,2465.62,96.61,2465.62,0h5c0,97.28-19.06,191.66-56.64,280.52-36.3,85.82-88.27,162.9-154.46,229.09Z"/>
  <path class="st0" d="M2260.68,555.2c-72.11,72.11-156.09,128.73-249.59,168.28-96.8,40.95-199.63,61.71-305.61,61.71s-208.81-20.76-305.61-61.71c-93.5-39.55-177.47-96.17-249.58-168.28-72.11-72.11-128.73-156.09-168.28-249.59C941.05,208.81,920.29,105.99,920.29,0h5c0,105.31,20.63,207.48,61.32,303.67,39.3,92.9,95.56,176.34,167.21,248,71.66,71.66,155.09,127.92,248,167.21,96.18,40.69,198.35,61.32,303.67,61.32,105.31,0,207.48-20.63,303.67-61.32,92.9-39.3,176.34-95.56,248-167.21,71.66-71.66,127.92-155.09,167.21-248C2465.05,207.48,2485.68,105.31,2485.68,0h5c0,105.99-20.76,208.81-61.71,305.61-39.55,93.5-96.17,177.47-168.28,249.58Z"/>
  <path class="st0" d="M2261.86,600.79c-78.04,78.04-168.91,139.3-270.08,182.1-104.75,44.31-216.02,66.78-330.71,66.78-114.69,0-225.96-22.47-330.71-66.78-101.18-42.8-192.05-104.07-270.08-182.1-78.04-78.04-139.31-168.91-182.1-270.08C833.85,225.96,811.38,114.69,811.38,0h5c0,114.02,22.34,224.63,66.39,328.76,42.55,100.58,103.46,190.92,181.03,268.5,77.58,77.58,167.91,138.49,268.49,181.03,104.13,44.05,214.75,66.39,328.76,66.39,114.02,0,224.63-22.33,328.77-66.39,100.58-42.55,190.92-103.46,268.49-181.03,77.58-77.58,138.49-167.91,181.03-268.5C2483.41,224.63,2505.74,114.02,2505.74,0h5c0,114.69-22.47,225.96-66.78,330.71-42.8,101.18-104.07,192.05-182.1,270.08Z"/>
  <path class="st0" d="M2263.03,646.39c-83.96,83.96-181.72,149.88-290.58,195.92-112.7,47.68-232.42,71.85-355.81,71.85-123.4,0-243.11-24.17-355.81-71.85-108.86-46.05-206.62-111.97-290.58-195.92-83.96-83.96-149.88-181.72-195.92-290.58C726.65,243.11,702.48,123.4,702.48,0h5c0,122.72,24.04,241.78,71.45,353.86,45.8,108.26,111.35,205.49,194.86,288.99,83.5,83.5,180.73,149.06,288.99,194.86,112.08,47.41,231.14,71.45,353.86,71.45s241.78-24.04,353.86-71.45c108.26-45.8,205.49-111.35,288.99-194.86,83.5-83.5,149.06-180.73,194.86-288.99C2501.76,241.78,2525.8,122.72,2525.8,0h5c0,123.4-24.17,243.11-71.85,355.81-46.05,108.86-111.97,206.62-195.92,290.58Z"/>
  <path class="st0" d="M2264.2,691.99c-89.88,89.88-194.54,160.45-311.08,209.75-120.65,51.04-248.81,76.92-380.91,76.92s-260.26-25.88-380.91-76.92c-116.53-49.3-221.2-119.86-311.08-209.75-89.88-89.88-160.45-194.54-209.75-311.08C619.45,260.26,593.57,132.1,593.57,0h5c0,131.43,25.75,258.93,76.52,378.96,49.04,115.94,119.25,220.07,208.68,309.49,89.42,89.42,193.55,159.63,309.49,208.67,120.03,50.78,247.53,76.52,378.96,76.52s258.93-25.75,378.96-76.52c115.94-49.04,220.07-119.25,309.49-208.67,89.42-89.42,159.63-193.55,208.68-309.49C2520.12,258.93,2545.86,131.43,2545.86,0h5c0,132.1-25.88,260.26-76.92,380.91-49.3,116.53-119.86,221.2-209.75,311.08Z"/>
  <path class="st0" d="M2265.38,737.58c-95.8,95.8-207.36,171.02-331.57,223.57-128.6,54.4-265.2,81.98-406.01,81.98s-277.4-27.58-406.01-81.98c-124.21-52.54-235.77-127.76-331.57-223.57-95.8-95.8-171.02-207.36-223.57-331.57C512.25,277.4,484.66,140.8,484.66,0h5c0,140.13,27.45,276.08,81.59,404.06,52.29,123.62,127.15,234.64,222.5,329.99,95.35,95.35,206.37,170.2,329.99,222.5,127.98,54.14,263.93,81.59,404.06,81.59,140.13,0,276.08-27.45,404.06-81.59,123.62-52.29,234.64-127.15,329.99-222.5,95.35-95.35,170.2-206.37,222.5-329.99C2538.47,276.08,2565.92,140.13,2565.92,0h5c0,140.8-27.58,277.4-81.98,406.01-52.54,124.21-127.76,235.77-223.57,331.57Z"/>
  <path class="st0" d="M2266.55,783.18c-101.73,101.73-220.18,181.59-352.07,237.39-136.55,57.76-281.6,87.05-431.11,87.05s-294.55-29.29-431.11-87.05c-131.89-55.79-250.34-135.66-352.07-237.39-101.73-101.73-181.59-220.18-237.39-352.07C405.05,294.55,375.76,149.51,375.76,0h5c0,148.84,29.16,293.22,86.66,429.16,55.54,131.3,135.05,249.21,236.32,350.48,101.27,101.27,219.19,180.78,350.48,236.32,135.93,57.5,280.32,86.66,429.16,86.66s293.23-29.16,429.16-86.66c131.29-55.54,249.21-135.05,350.48-236.32,101.27-101.27,180.78-219.19,236.32-350.48C2556.83,293.22,2585.99,148.84,2585.99,0h5c0,149.51-29.29,294.55-87.05,431.11-55.79,131.89-135.66,250.34-237.39,352.07Z"/>
  <path class="st0" d="M2267.72,828.77c-107.65,107.65-233,192.17-372.57,251.21-144.5,61.13-297.99,92.12-456.21,92.12s-311.7-30.99-456.2-92.12c-139.57-59.04-264.92-143.56-372.57-251.21-107.65-107.65-192.17-233-251.21-372.57C297.84,311.7,266.85,158.21,266.85,0h5c0,157.54,30.86,310.37,91.73,454.26,58.79,138.97,142.95,263.79,250.14,370.98,107.19,107.19,232.01,191.35,370.98,250.14,143.88,60.87,296.72,91.73,454.26,91.73s310.37-30.86,454.26-91.73c138.97-58.79,263.79-142.95,370.98-250.14,107.19-107.19,191.35-232.01,250.14-370.98C2575.19,310.37,2606.05,157.54,2606.05,0h5c0,158.21-30.99,311.7-92.12,456.2-59.04,139.57-143.56,264.92-251.21,372.57Z"/>
  <path class="st0" d="M2419.9,691.35c-44.24,65.48-95.04,127.05-151,183.01-55.96,55.96-117.53,106.77-183.01,151-66.11,44.66-136.78,83.03-210.05,114.02-152.45,64.49-314.39,97.19-481.3,97.19-166.92,0-328.85-32.7-481.3-97.19-73.27-30.99-143.94-69.36-210.05-114.02-65.48-44.24-127.05-95.04-183.01-151-55.96-55.96-106.77-117.53-151-183.01-44.66-66.11-83.03-136.78-114.02-210.05C190.64,328.85,157.95,166.92,157.95,0h5c0,166.24,32.57,327.52,96.79,479.35,30.87,72.97,69.08,143.36,113.56,209.2,44.06,65.22,94.66,126.54,150.4,182.28,55.73,55.73,117.06,106.34,182.28,150.4,65.84,44.48,136.23,82.69,209.2,113.56,151.83,64.23,313.11,96.79,479.35,96.79,166.24,0,327.52-32.57,479.36-96.79,72.97-30.87,143.36-69.08,209.2-113.56,65.22-44.06,126.54-94.66,182.28-150.4,55.73-55.73,106.33-117.06,150.4-182.28,44.48-65.84,82.69-136.23,113.56-209.2C2593.54,327.52,2626.11,166.24,2626.11,0h5c0,166.92-32.7,328.85-97.19,481.3-31,73.27-69.36,143.94-114.02,210.05Z"/>
  <path class="st0" d="M2428.95,727.4c-46.55,68.89-100,133.68-158.88,192.56-58.88,58.88-123.66,112.33-192.56,158.88-69.56,46.99-143.91,87.36-221,119.97-160.4,67.85-330.78,102.26-506.4,102.26-175.62,0-346-34.4-506.4-102.26-77.09-32.61-151.45-72.97-221-119.97-68.89-46.55-133.68-100-192.56-158.88-58.88-58.88-112.33-123.66-158.88-192.56-46.99-69.56-87.36-143.91-119.97-221C83.44,346,49.04,175.62,49.04,0h5c0,174.95,34.27,344.67,101.86,504.45,32.48,76.8,72.69,150.87,119.51,220.15,46.37,68.63,99.62,133.17,158.27,191.82,58.65,58.65,123.19,111.9,191.82,158.27,69.29,46.81,143.36,87.02,220.15,119.51,159.78,67.59,329.5,101.86,504.45,101.86,174.95,0,344.67-34.27,504.45-101.86,76.79-32.48,150.87-72.69,220.15-119.51,68.63-46.37,133.17-99.62,191.82-158.27,58.65-58.65,111.9-123.19,158.27-191.82,46.81-69.29,87.02-143.36,119.51-220.15C2611.9,344.67,2646.17,174.95,2646.17,0h5c0,175.62-34.4,346-102.26,506.4-32.61,77.09-72.97,151.45-119.97,221Z"/>
  <path class="st0" d="M2437.99,763.46c-48.85,72.31-104.96,140.3-166.75,202.1-61.8,61.8-129.79,117.9-202.1,166.75-73,49.32-151.04,91.69-231.96,125.91-168.35,71.22-347.17,107.32-531.5,107.32-184.33,0-363.15-36.11-531.5-107.32-80.91-34.23-158.95-76.59-231.96-125.91-72.31-48.85-140.31-104.96-202.1-166.75-61.8-61.8-117.9-129.79-166.75-202.1-49.32-73-91.69-151.04-125.91-231.96C29.36,488.72,13.55,445.27,0,401.22v-17.35c14.51,49.33,31.86,97.93,52.06,145.68,34.1,80.62,76.31,158.37,125.45,231.11,48.68,72.04,104.57,139.79,166.15,201.36,61.57,61.57,129.32,117.47,201.36,166.15,72.74,49.14,150.49,91.35,231.11,125.45,167.73,70.95,345.9,106.93,529.55,106.93,183.65,0,361.82-35.98,529.55-106.93,80.62-34.1,158.37-76.31,231.11-125.45,72.04-48.68,139.79-104.58,201.37-166.15,61.57-61.57,117.47-129.32,166.15-201.36,49.14-72.74,91.35-150.49,125.45-231.11C2630.25,361.82,2666.23,183.65,2666.23,0h5c0,184.32-36.11,363.15-107.32,531.5-34.23,80.91-76.59,158.96-125.91,231.96Z"/>
  <path class="st0" d="M2447.04,799.51c-51.16,75.72-109.91,146.93-174.63,211.64-64.71,64.71-135.92,123.47-211.64,174.63-76.45,51.65-158.18,96.02-242.91,131.86-176.3,74.58-363.57,112.39-556.6,112.39-193.03,0-380.3-37.81-556.6-112.39-84.73-35.84-166.46-80.21-242.91-131.86-75.72-51.16-146.93-109.91-211.64-174.63-64.71-64.71-123.47-135.92-174.63-211.64C48.22,759.17,23.02,717.34,0,674.39v-10.6c24.11,45.7,50.72,90.13,79.62,132.92,50.98,75.46,109.53,146.42,174.02,210.91,64.49,64.49,135.45,123.04,210.91,174.02,76.18,51.47,157.62,95.68,242.06,131.4,175.68,74.32,362.29,112,554.65,112,192.36,0,378.97-37.68,554.65-112,84.44-35.72,165.88-79.93,242.06-131.4,75.46-50.98,146.42-109.53,210.91-174.02,64.49-64.49,123.04-135.45,174.02-210.91,51.47-76.18,95.68-157.62,131.4-242.06C2648.61,378.97,2686.29,192.36,2686.29,0h5c0,193.03-37.81,380.3-112.39,556.6-35.84,84.73-80.21,166.46-131.86,242.91Z"/>
  <path class="st0" d="M2456.09,835.56c-53.47,79.14-114.87,153.56-182.5,221.19-67.63,67.63-142.05,129.03-221.19,182.5-79.9,53.98-165.31,100.35-253.86,137.8-184.25,77.94-379.96,117.46-581.7,117.46-201.73,0-397.44-39.52-581.7-117.46-88.55-37.46-173.97-83.82-253.86-137.8-79.14-53.47-153.56-114.87-221.19-182.5C101.71,998.37,48,934.94,0,867.78v-8.63c48.86,69.05,103.79,134.23,163.62,194.06,67.41,67.41,141.58,128.61,220.45,181.9,79.63,53.8,164.76,100.01,253.01,137.34,183.63,77.68,378.69,117.07,579.75,117.07,201.06,0,396.12-39.39,579.75-117.07,88.26-37.33,173.38-83.54,253.01-137.34,78.87-53.29,153.04-114.49,220.45-181.9,67.41-67.41,128.61-141.58,181.9-220.45,53.8-79.63,100.01-164.76,137.34-253.01C2666.97,396.12,2706.35,201.06,2706.35,0h5c0,201.73-39.52,397.44-117.46,581.69-37.46,88.55-83.82,173.97-137.8,253.87Z"/>
  <path class="st0" d="M2465.14,871.61c-55.77,82.55-119.83,160.18-190.38,230.73-70.55,70.55-148.18,134.6-230.73,190.38-83.34,56.31-172.44,104.67-264.82,143.75-192.2,81.3-396.36,122.53-606.8,122.53s-414.59-41.22-606.79-122.53c-92.37-39.08-181.47-87.44-264.82-143.75-82.55-55.77-160.18-119.83-230.73-190.38C45.92,1078.19,22.55,1053.2,0,1027.48v-7.59c23.64,27.16,48.19,53.5,73.61,78.92,70.33,70.33,147.71,134.17,230,189.77,83.08,56.13,171.89,104.34,263.97,143.29,191.58,81.04,395.08,122.13,604.85,122.13s413.27-41.09,604.85-122.13c92.08-38.95,180.89-87.16,263.97-143.29,82.29-55.6,159.67-119.44,230-189.77,70.33-70.33,134.17-147.71,189.77-230,56.13-83.08,104.34-171.89,143.29-263.97C2685.32,413.26,2726.42,209.76,2726.42,0h5c0,210.44-41.22,414.59-122.53,606.79-39.08,92.37-87.44,181.47-143.75,264.82Z"/>
  <path class="st0" d="M2474.18,907.66c-58.08,85.97-124.78,166.81-198.25,240.28-73.47,73.47-154.31,140.17-240.28,198.25-86.79,58.64-179.58,109-275.77,149.7-200.15,84.67-412.75,127.6-631.89,127.6s-431.74-42.93-631.89-127.6c-96.2-40.69-188.98-91.06-275.77-149.7C142.06,1293.31,68.07,1233.27,0,1167.51v-6.95c68.81,66.88,143.77,127.88,223.13,181.49,86.52,58.46,179.02,108.67,274.92,149.23,199.53,84.4,411.48,127.2,629.94,127.2s430.41-42.8,629.95-127.2c95.9-40.57,188.4-90.78,274.92-149.23,85.7-57.9,166.3-124.4,239.54-197.64,73.24-73.24,139.74-153.84,197.64-239.54,58.46-86.52,108.67-179.02,149.24-274.92C2703.68,430.41,2746.48,218.47,2746.48,0h5c0,219.14-42.93,431.74-127.6,631.89-40.69,96.2-91.06,188.98-149.7,275.77Z"/>
  <path class="st0" d="M2483.23,943.71c-60.39,89.38-129.74,173.43-206.13,249.82-76.39,76.39-160.44,145.74-249.82,206.13-90.24,60.97-186.71,113.33-286.72,155.64-208.1,88.03-429.15,132.66-656.99,132.66-227.85,0-448.89-44.63-656.99-132.66-100.02-42.31-196.49-94.67-286.72-155.64C91.55,1367.02,44.82,1331.75,0,1294.19v-6.51c45.66,38.46,93.34,74.53,142.65,107.85,89.97,60.79,186.15,113,285.87,155.18,207.48,87.77,427.87,132.27,655.04,132.27s447.56-44.5,655.04-132.27c99.72-42.18,195.9-94.39,285.87-155.18,89.12-60.21,172.92-129.36,249.08-205.52,76.16-76.16,145.31-159.97,205.52-249.08,60.79-89.97,113-186.15,155.18-285.87C2722.04,447.56,2766.54,227.17,2766.54,0h5c0,227.85-44.63,448.89-132.66,656.99-42.31,100.02-94.67,196.49-155.64,286.73Z"/>
  <path class="st0" d="M2653.87,682.09c-43.92,103.84-98.29,203.99-161.59,297.68-62.7,92.8-134.7,180.06-214,259.36-79.31,79.3-166.57,151.3-259.36,214-93.69,63.3-193.84,117.66-297.68,161.59-105.76,44.74-216.43,79.1-328.94,102.12-115.45,23.63-234.26,35.61-353.15,35.61s-237.7-11.98-353.15-35.61c-112.51-23.03-223.18-57.39-328.94-102.12-103.84-43.92-203.99-98.29-297.68-161.59C39.31,1439.57,19.52,1425.55,0,1411.15v-6.22c20.43,15.14,41.15,29.85,62.18,44.06,93.42,63.12,193.29,117.33,296.83,161.13,105.46,44.61,215.81,78.87,328,101.83,115.12,23.56,233.59,35.51,352.14,35.51s237.03-11.95,352.15-35.51c112.19-22.96,222.54-57.22,328-101.83,103.54-43.8,203.41-98.01,296.83-161.13,92.53-62.52,179.55-134.31,258.63-213.39,79.08-79.08,150.88-166.09,213.39-258.63,63.12-93.42,117.33-193.29,161.13-296.83,44.61-105.45,78.87-215.81,101.83-328C2774.65,237.03,2786.6,118.55,2786.6,0h5c0,118.89-11.98,237.7-35.61,353.15-23.03,112.51-57.39,223.18-102.12,328.94Z"/>
  <path class="st0" d="M2668.86,707.19c-45.54,107.66-101.91,211.5-167.54,308.63-65,96.21-139.65,186.68-221.87,268.91-82.22,82.22-172.7,156.87-268.91,221.87-97.13,65.63-200.97,121.99-308.63,167.53-109.65,46.38-224.4,82.01-341.05,105.88-119.69,24.5-242.88,36.92-366.14,36.92-123.26,0-246.45-12.42-366.14-36.92-116.65-23.87-231.39-59.5-341.05-105.88C187.63,1631.87,91.02,1580.28,0,1520.63v-5.97c91.57,60.25,188.85,112.3,289.48,154.87,109.35,46.26,223.77,81.78,340.1,105.59,119.36,24.43,242.21,36.82,365.14,36.82s245.78-12.39,365.14-36.82c116.33-23.81,230.75-59.33,340.1-105.59,107.36-45.42,210.91-101.63,307.78-167.07,95.95-64.82,186.17-139.27,268.17-221.27s156.44-172.22,221.27-268.17c65.45-96.87,121.66-200.42,167.07-307.78,46.25-109.35,81.78-223.77,105.59-340.1C2794.27,245.77,2806.66,122.92,2806.66,0h5c0,123.26-12.42,246.45-36.92,366.14-23.88,116.65-59.5,231.4-105.88,341.05Z"/>
  <path class="st0" d="M2683.85,732.28c-47.16,111.48-105.52,219-173.48,319.58-67.31,99.62-144.61,193.31-229.75,278.45-85.14,85.14-178.83,162.44-278.45,229.75-100.58,67.96-208.11,126.32-319.59,173.48-113.54,48.03-232.36,84.92-353.15,109.64-123.94,25.37-251.5,38.23-379.14,38.23-127.64,0-255.2-12.86-379.14-38.23-120.79-24.72-239.61-61.61-353.15-109.64C143.26,1701.93,70.29,1665.26,0,1624.05v-5.8c70.89,41.71,144.51,78.78,219.96,110.7,113.24,47.9,231.74,84.69,352.2,109.35,123.61,25.3,250.83,38.13,378.13,38.13s254.52-12.83,378.13-38.13c120.47-24.66,238.97-61.44,352.2-109.35,111.18-47.03,218.42-105.24,318.73-173.02,99.36-67.13,192.8-144.23,277.71-229.14,84.92-84.92,162.01-178.35,229.14-277.71,67.77-100.31,125.99-207.55,173.02-318.73,47.9-113.24,84.69-231.74,109.35-352.21C2813.89,254.52,2826.72,127.3,2826.72,0h5c0,127.63-12.86,255.19-38.23,379.13-24.72,120.79-61.61,239.61-109.64,353.15Z"/>
  <path class="st0" d="M2698.85,757.38c-48.77,115.3-109.14,226.51-179.43,330.54-69.62,103.04-149.56,199.93-237.62,287.99-88.06,88.06-184.95,168.01-287.99,237.62-104.03,70.28-215.24,130.65-330.54,179.43-117.43,49.68-240.32,87.83-365.25,113.4-128.19,26.24-260.12,39.54-392.13,39.54-132.01,0-263.94-13.3-392.13-39.54-124.93-25.57-247.82-63.72-365.25-113.4C98.13,1771.66,48.55,1748.14,0,1722.55v-5.66c49.16,26,99.4,49.88,150.44,71.47,117.13,49.55,239.7,87.6,364.31,113.1,127.86,26.17,259.45,39.44,391.13,39.44,131.67,0,263.27-13.27,391.13-39.44,124.61-25.5,247.18-63.56,364.31-113.1,115-48.65,225.93-108.86,329.69-178.96,102.78-69.44,199.42-149.18,287.26-237.02,87.83-87.83,167.58-184.48,237.02-287.26,70.1-103.76,130.32-214.68,178.96-329.69,49.55-117.13,87.6-239.7,113.1-364.31C2833.51,263.27,2846.78,131.67,2846.78,0h5c0,132.01-13.3,263.94-39.54,392.13-25.57,124.93-63.72,247.82-113.4,365.25Z"/>
  <path class="st0" d="M2713.84,782.48c-50.39,119.12-112.76,234.01-185.37,341.49-71.92,106.45-154.52,206.56-245.5,297.54-90.98,90.98-191.08,173.58-297.54,245.5-107.48,72.61-222.37,134.98-341.49,185.37-121.33,51.32-248.29,90.74-377.36,117.16-132.44,27.11-268.74,40.85-405.13,40.85-136.38,0-272.69-13.74-405.13-40.85-129.07-26.42-256.03-65.83-377.36-117.16C52.43,1841.15,26.09,1829.32,0,1816.92v-5.54c26.73,12.74,53.71,24.89,80.92,36.4,121.02,51.19,247.66,90.51,376.41,116.86,132.11,27.04,268.07,40.75,404.12,40.75s272.02-13.71,404.12-40.75c128.75-26.35,255.39-65.67,376.41-116.86,118.82-50.26,233.43-112.48,340.64-184.91,106.19-71.75,206.05-154.14,296.8-244.89,90.75-90.75,173.15-190.61,244.89-296.8,72.43-107.21,134.65-221.82,184.91-340.64,51.19-121.02,90.51-247.66,116.86-376.41C2853.14,272.01,2866.84,136.05,2866.84,0h5c0,136.38-13.74,272.69-40.85,405.12-26.42,129.07-65.83,256.03-117.16,377.36Z"/>
  <path class="st0" d="M2728.83,807.58c-52.01,122.94-116.38,241.52-191.32,352.45-74.23,109.87-159.48,213.19-253.37,307.08-93.9,93.9-197.21,179.14-307.08,253.37-110.92,74.94-229.5,139.31-352.45,191.32-125.22,52.97-256.25,93.65-389.46,120.91-136.69,27.97-277.36,42.16-418.12,42.16-140.76,0-281.44-14.18-418.12-42.16-133.21-27.26-264.24-67.94-389.46-120.91C6.3,1910.46,3.15,1909.11,0,1907.76v-5.44c3.8,1.63,7.6,3.25,11.4,4.86,124.91,52.84,255.63,93.42,388.52,120.62,136.36,27.91,276.69,42.06,417.12,42.06s280.76-14.15,417.12-42.06c132.89-27.2,263.6-67.78,388.52-120.62,122.64-51.88,240.94-116.09,351.59-190.86,109.61-74.05,212.67-159.09,306.35-252.77,93.67-93.67,178.71-196.74,252.76-306.34,74.76-110.66,138.98-228.95,190.86-351.59,52.84-124.91,93.42-255.63,120.62-388.52C2872.75,280.76,2886.91,140.42,2886.91,0h5c0,140.76-14.18,281.43-42.16,418.12-27.26,133.21-67.94,264.25-120.91,389.46Z"/>
  <path class="st0" d="M2743.83,832.68c-53.62,126.76-119.99,249.03-197.26,363.4-76.54,113.28-164.43,219.81-261.25,316.63-96.81,96.81-203.34,184.71-316.63,261.25-114.37,77.27-236.64,143.64-363.4,197.26-129.11,54.61-264.21,96.56-401.57,124.67-140.93,28.84-285.98,43.47-431.11,43.47-145.13,0-290.18-14.63-431.11-43.47C225.3,2072.1,110.71,2038.42,0,1995.54v-5.37c111.01,43.11,225.94,76.96,342.5,100.81,140.6,28.78,285.31,43.37,430.11,43.37,144.8,0,289.51-14.59,430.11-43.37,137.03-28.04,271.81-69.89,400.62-124.38,126.47-53.5,248.44-119.71,362.55-196.8,113.02-76.36,219.3-164.05,315.89-260.64,96.59-96.59,184.28-202.87,260.64-315.89,77.09-114.1,143.3-236.08,196.8-362.55,54.49-128.8,96.33-263.59,124.38-400.62C2892.38,289.51,2906.97,144.8,2906.97,0h5c0,145.13-14.63,290.18-43.47,431.11-28.11,137.35-70.06,272.46-124.67,401.57Z"/>
  <path class="st0" d="M2758.82,857.78c-55.24,130.58-123.61,256.53-203.21,374.35-78.84,116.7-169.39,226.44-269.12,326.17-99.73,99.73-209.47,190.28-326.17,269.12-117.82,79.6-243.77,147.97-374.35,203.21-133,56.26-272.18,99.47-413.67,128.43-145.18,29.71-294.6,44.78-444.11,44.78-149.51,0-298.93-15.07-444.11-44.78C187.91,2139.37,92.82,2113.1,0,2080.63v-5.29c93.13,32.66,188.57,59.07,285.08,78.82,144.85,29.65,293.93,44.68,443.11,44.68,149.17,0,298.26-15.03,443.11-44.68,141.17-28.89,280.03-72,412.72-128.14,130.29-55.11,255.95-123.33,373.5-202.75,116.43-78.67,225.93-169.01,325.43-268.51,99.51-99.51,189.85-209,268.51-325.43,79.42-117.55,147.63-243.21,202.75-373.5,56.13-132.7,99.24-271.56,128.14-412.72C2912,298.25,2927.03,149.17,2927.03,0h5c0,149.51-15.07,298.93-44.78,444.11-28.96,141.49-72.17,280.67-128.43,413.67Z"/>
  <path class="st0" d="M2773.81,882.87c-56.85,134.4-127.22,264.04-209.16,385.31-81.15,120.11-174.35,233.06-277,335.71-102.65,102.65-215.6,195.85-335.71,277-121.27,81.93-250.9,152.3-385.31,209.16-136.89,57.91-280.14,102.38-425.77,132.19-149.43,30.58-303.22,46.09-457.1,46.09-153.88,0-307.67-15.51-457.1-46.09C150.26,2206.59,74.52,2186.91,0,2163.38v-5.24c74.84,23.69,150.92,43.49,227.67,59.19,149.1,30.52,302.55,45.99,456.1,45.99,153.55,0,307-15.47,456.1-45.99,145.31-29.74,288.24-74.11,424.83-131.89,134.11-56.73,263.46-126.94,384.45-208.69,119.85-80.97,232.55-173.96,334.98-276.39,102.42-102.42,195.42-215.13,276.39-334.98,81.75-121,151.96-250.35,208.69-384.45,57.78-136.59,102.15-279.52,131.89-424.83C2931.62,307,2947.09,153.55,2947.09,0h5c0,153.88-15.51,307.67-46.09,457.1-29.81,145.63-74.28,288.88-132.19,425.77Z"/>
  <path class="st0" d="M2788.81,907.97c-58.47,138.23-130.84,271.55-215.1,396.26-83.46,123.53-179.3,239.69-284.87,345.26-105.57,105.57-221.73,201.41-345.26,284.87-124.71,84.26-258.03,156.63-396.26,215.1-140.78,59.55-288.11,105.29-437.88,135.94-133.9,27.4-271.2,43.03-409.01,46.6h-122.18c-137.81-3.57-275.11-19.2-409.01-46.6C112.4,2273.77,55.91,2259.96,0,2244.05v-5.2c56.24,16.04,113.06,29.96,170.25,41.66,153.35,31.38,311.17,47.3,469.1,47.3s315.75-15.91,469.1-47.3c149.45-30.59,296.45-76.23,436.93-135.65,137.93-58.35,270.96-130.56,395.41-214.64,123.26-83.28,239.18-178.92,344.52-284.26,105.34-105.34,200.98-221.26,284.26-344.52,84.08-124.45,156.29-257.48,214.64-395.41,59.42-140.48,105.06-287.48,135.65-436.93C2951.24,315.75,2967.15,157.92,2967.15,0h5c0,158.26-15.95,316.42-47.4,470.1-30.65,149.77-76.39,297.09-135.94,437.88Z"/>
  <path class="st0" d="M2803.8,933.07c-60.09,142.05-134.46,279.05-221.05,407.21-85.76,126.94-184.26,246.31-292.75,354.8-108.49,108.49-227.86,206.98-354.8,292.75-128.16,86.59-265.17,160.96-407.21,221.05-121.19,51.26-247.09,92.56-375.23,123.13h-21.97c135.05-30.94,267.77-73.81,395.25-127.74,141.75-59.96,278.47-134.18,406.36-220.58,126.68-85.59,245.8-183.88,354.06-292.14,108.26-108.26,206.55-227.39,292.14-354.06,86.41-127.89,160.62-264.61,220.58-406.36,61.07-144.37,107.97-295.45,139.41-449.03C2970.86,324.49,2987.21,162.3,2987.21,0h5c0,162.63-16.39,325.17-48.71,483.09-31.5,153.91-78.5,305.31-139.7,449.98Z"/>
  <path class="st0" d="M2818.79,958.17c-61.7,145.87-138.08,286.56-226.99,418.17-88.07,130.36-189.22,252.94-300.62,364.34-111.4,111.4-233.99,212.55-364.34,300.62-131.61,88.92-272.3,165.29-418.17,226.99-54.99,23.26-110.92,44.52-167.58,63.72h-15.72c61.37-20.38,121.92-43.18,181.36-68.32,145.57-61.58,285.97-137.79,417.31-226.53,130.09-87.89,252.43-188.83,363.61-300.01,111.18-111.18,212.12-233.51,300.01-363.61,88.74-131.34,164.95-271.75,226.53-417.31,62.72-148.26,110.88-303.41,143.17-461.14C2990.48,333.24,3007.27,166.67,3007.27,0h5c0,167.01-16.83,333.91-50.02,496.08-32.35,158.05-80.61,313.52-143.46,462.08Z"/>
  <path class="st0" d="M2833.79,983.27c-63.32,149.69-141.69,294.06-232.94,429.12-90.38,133.77-194.17,259.56-308.49,373.89-114.32,114.32-240.12,218.12-373.89,308.49-135.06,91.25-279.43,169.62-429.12,232.94-3.41,1.44-6.84,2.87-10.26,4.3h-13.05c7.13-2.94,14.26-5.9,21.36-8.91,149.39-63.19,293.48-141.41,428.27-232.48,133.51-90.2,259.05-193.79,373.15-307.89,114.1-114.1,217.69-239.64,307.89-373.15,91.07-134.79,169.28-278.88,232.48-428.27,64.36-152.15,113.79-311.37,146.92-473.24C3010.1,341.99,3027.33,171.04,3027.33,0h5c0,171.38-17.27,342.66-51.33,509.08-33.19,162.19-82.73,321.73-147.22,474.19Z"/>
  <path class="st0" d="M2848.78,1008.37c-64.94,153.51-145.31,301.57-238.88,440.07-92.69,137.18-199.13,266.19-316.37,383.43-117.24,117.24-246.25,223.68-383.43,316.37-101.63,68.66-208.41,130.21-318.71,183.77h-11.48c113.38-54.5,223.1-117.45,327.39-187.91,136.92-92.51,265.68-198.75,382.69-315.76,117.02-117.02,223.25-245.77,315.76-382.69,93.39-138.23,173.61-286.01,238.42-439.22,66.01-156.04,116.71-319.34,150.68-485.35C3029.72,350.73,3047.4,175.42,3047.4,0h5c0,175.76-17.71,351.41-52.64,522.07-34.04,166.33-84.84,329.94-150.98,486.29Z"/>
  <path class="st0" d="M2863.77,1033.46c-66.55,157.33-148.92,309.08-244.83,451.03-94.99,140.6-204.08,272.82-324.24,392.97-120.16,120.16-252.38,229.25-392.98,324.24-69.18,46.74-140.69,90.25-214.03,130.3h-10.46c76.03-41.17,150.11-86.08,221.69-134.44,140.34-94.81,272.3-203.7,392.24-323.64,119.93-119.93,228.82-251.9,323.64-392.24,95.72-141.68,177.94-293.14,244.37-450.17,67.66-159.94,119.62-327.3,154.44-497.45C3049.34,359.48,3067.46,179.79,3067.46,0h5c0,180.13-18.15,360.15-53.95,535.07-34.89,170.47-86.95,338.16-154.73,498.4Z"/>
  <path class="st0" d="M2878.77,1058.56c-68.17,161.15-152.54,316.58-250.78,461.98-97.3,144.01-209.04,279.44-332.12,402.52-123.08,123.08-258.5,234.82-402.52,332.12-39.44,26.65-79.63,52.27-120.46,76.83h-9.72c43.22-25.82,85.72-52.82,127.38-80.97,143.75-97.12,278.93-208.66,401.78-331.51,122.85-122.85,234.39-258.03,331.51-401.78,98.05-145.13,182.27-300.28,250.31-461.13,69.3-163.83,122.53-335.27,158.2-509.55C3068.96,368.23,3087.52,184.17,3087.52,0h5c0,184.5-18.59,368.9-55.26,548.06-35.74,174.61-89.06,346.37-158.49,510.5Z"/>
  <path class="st0" d="M2893.76,1083.66c-69.79,164.97-156.16,324.09-256.72,472.93-99.61,147.43-214,286.07-339.99,412.06-126,126-264.63,240.39-412.06,339.99-11.66,7.88-23.39,15.66-35.17,23.36h-9.14c13.92-9.05,27.76-18.21,41.51-27.5,147.17-99.43,285.56-213.61,411.33-339.38,125.77-125.77,239.96-264.16,339.38-411.33,100.38-148.58,186.6-307.41,256.26-472.08,70.95-167.72,125.44-343.23,161.95-521.66C3088.58,376.97,3107.58,188.54,3107.58,0h5c0,188.88-19.03,377.65-56.57,561.06-36.59,178.75-91.17,354.58-162.25,522.6Z"/>
  <path class="st0" d="M2908.75,1108.76c-71.4,168.79-159.78,331.6-262.67,483.89-101.91,150.84-218.95,292.69-347.87,421.61-116.4,116.4-243.35,223.11-377.94,317.76h-8.72c136.52-95.49,265.24-203.41,383.12-321.29,128.69-128.69,245.52-270.29,347.26-420.87,102.71-152.02,190.93-314.54,262.21-483.04,72.59-171.61,128.35-351.19,165.71-533.76C3108.2,385.72,3127.64,192.92,3127.64,0h5c0,193.25-19.47,386.39-57.88,574.05-37.43,182.89-93.28,362.79-166.01,534.71Z"/>
  <path class="st0" d="M2923.75,1133.86c-73.02,172.61-163.39,339.1-268.61,494.84-104.22,154.26-223.91,299.32-355.74,431.15-97.87,97.87-203.03,189.04-313.83,272.16h-8.34c112.57-84.05,219.36-176.42,318.64-275.7,131.61-131.61,251.09-276.42,355.13-430.41,105.04-155.47,195.26-321.67,268.15-493.99,74.24-175.5,131.26-359.16,169.47-545.86C3127.82,394.47,3147.7,197.29,3147.7,0h5c0,197.63-19.92,395.14-59.19,587.05-38.28,187.03-95.4,371-169.76,546.81Z"/>
  <path class="st0" d="M2938.74,1158.96c-74.63,176.43-167.01,346.61-274.56,505.79-106.53,157.67-228.87,305.94-363.62,440.69-80.15,80.15-165.09,155.91-253.94,226.57h-8.06c90.5-71.65,176.97-148.6,258.47-230.1,134.52-134.52,256.66-282.55,363.01-439.96,107.37-158.92,199.59-328.81,274.1-504.94,75.89-179.39,134.17-367.12,173.23-557.97C3147.44,403.21,3167.76,201.67,3167.76,0h5c0,202-20.36,403.89-60.5,600.04-39.13,191.17-97.51,379.22-173.52,558.91Z"/>
  <path class="st0" d="M2953.73,1184.05c-76.25,180.25-170.63,354.11-280.5,516.75-108.83,161.09-233.82,312.57-371.49,450.24-63.1,63.1-129.11,123.53-197.62,180.97h-7.77c70.02-58.48,137.45-120.11,201.85-184.51,137.44-137.44,262.23-288.68,370.88-449.5,109.7-162.37,203.92-335.94,280.04-515.9,77.53-183.29,137.08-375.09,176.99-570.07C3167.06,411.96,3187.83,206.04,3187.83,0h5c0,206.38-20.8,412.63-61.81,613.04-39.97,195.31-99.62,387.43-177.28,571.02Z"/>
  <path class="st0" d="M2968.73,1209.15c-77.87,184.08-174.24,361.62-286.45,527.7-111.14,164.5-238.78,319.19-379.36,459.78-46.59,46.59-94.75,91.76-144.28,135.38h-7.56c50.96-44.71,100.45-91.06,148.31-138.91,140.36-140.36,267.79-294.81,378.76-459.04,112.03-165.81,208.25-343.07,285.99-526.85,79.18-187.18,139.99-383.05,180.74-582.18C3186.68,420.71,3207.89,210.42,3207.89,0h5c0,210.75-21.24,421.38-63.12,626.03-40.82,199.45-101.73,395.64-181.04,583.12Z"/>
</svg>